<?xml version="1.0" encoding="UTF-8"?>
<svg version="1.1" xmlns="http://www.w3.org/2000/svg" width="1024" height="1024">
<path d="M0 0 C337.92 0 675.84 0 1024 0 C1024 337.92 1024 675.84 1024 1024 C686.08 1024 348.16 1024 0 1024 C0 686.08 0 348.16 0 0 Z " fill="#FCF9EE" transform="translate(0,0)"/>
<path d="M0 0 C5.22381055 1.10974435 10.39241025 2.38732867 15.54296875 3.796875 C16.26677734 3.99394043 16.99058594 4.19100586 17.73632812 4.39404297 C51.27665392 13.74453769 82.25763475 31.62737189 99.78515625 62.6640625 C107.47603031 76.96848281 111.09178782 91.70392832 112.54296875 107.796875 C113.89788759 106.29755438 115.25185553 104.79737446 116.60546875 103.296875 C117.43304688 102.38035156 118.260625 101.46382813 119.11328125 100.51953125 C121.10692958 98.28549124 123.04899363 96.02164817 124.98046875 93.734375 C153.24124396 61.63729546 198.61897477 42.04222265 240.54296875 37.796875 C291.91995948 35.54738489 343.50348083 47.74521039 382.54296875 83.046875 C384.0337768 84.44824453 385.51114825 85.861762 386.98046875 87.28564453 C388.05734863 88.32718929 389.14112882 89.36163088 390.23046875 90.39013672 C422.84472323 121.19349928 444.80176472 166.52242503 446.70410156 211.61645508 C447.07835206 246.81993671 447.07835206 246.81993671 443.54296875 261.796875 C443.24495361 263.12404541 443.24495361 263.12404541 442.94091797 264.47802734 C435.81131188 295.77886724 422.20413304 327.05813792 399.67578125 350.42578125 C396.72498529 353.70624489 394.14845648 357.23952882 391.54296875 360.796875 C391.91059326 361.27519775 392.27821777 361.75352051 392.65698242 362.24633789 C394.34936034 364.44975278 396.03992345 366.65455379 397.73046875 368.859375 C398.30861328 369.61154297 398.88675781 370.36371094 399.48242188 371.13867188 C400.05283203 371.88310547 400.62324219 372.62753906 401.2109375 373.39453125 C401.78078369 374.13098877 402.35062988 374.86744629 402.93774414 375.6262207 C404.54296875 377.796875 404.54296875 377.796875 405.84936523 379.91088867 C407.14613886 382.10085343 407.14613886 382.10085343 409.54296875 384.796875 C412.78029798 385.49245622 412.78029798 385.49245622 416.23046875 384.984375 C424.98271743 384.57325685 430.91131244 386.41718441 437.79296875 391.859375 C443.66350667 397.42039422 448.16333557 404.17775679 452.86328125 410.71875 C456.33342522 415.54278286 459.93827817 420.2465906 463.60546875 424.921875 C464.7722932 426.41263693 465.93896063 427.90352178 467.10546875 429.39453125 C467.67652344 430.12430176 468.24757813 430.85407227 468.8359375 431.60595703 C471.61520073 435.17304916 474.3618103 438.76486393 477.10546875 442.359375 C477.63793213 443.05691895 478.17039551 443.75446289 478.71899414 444.47314453 C479.79088781 445.87794161 480.86258412 447.28288931 481.93408203 448.68798828 C484.6338272 452.22674378 487.33865034 455.76161396 490.04296875 459.296875 C493.32879939 463.59323486 496.61422618 467.88990214 499.8984375 472.1875 C504.771671 478.56369336 509.64722395 484.93794314 514.54296875 491.296875 C515.32929687 492.32554687 516.115625 493.35421875 516.92578125 494.4140625 C518.88691875 496.96799489 520.89242475 499.48276848 522.91015625 501.9921875 C531.97084566 513.35928 538.20611272 522.6414756 536.54296875 537.796875 C534.46041653 549.41826013 525.96783488 556.82971807 516.79296875 563.421875 C515.46507324 564.39398926 515.46507324 564.39398926 514.11035156 565.38574219 C490.56233371 582.50450306 490.56233371 582.50450306 475.54296875 580.796875 C461.91514068 577.4979195 455.06920904 566.84142596 447.27929688 556.15673828 C444.17160061 551.93303298 440.97816604 547.77475192 437.79296875 543.609375 C436.43218252 541.82560409 435.07150667 540.04174898 433.7109375 538.2578125 C432.32163589 536.43748374 430.93231274 534.61717142 429.54296875 532.796875 C413.72651693 512.06836904 413.72651693 512.06836904 406.9921875 503.05078125 C404.3291202 499.4996404 401.6281726 495.97754183 398.93212891 492.45141602 C391.21988156 482.36093862 383.60039468 472.21014602 376.11962891 461.94677734 C374.6126509 459.89189219 373.0866434 457.85270556 371.5546875 455.81640625 C364.69963884 446.62528629 360.03550931 438.64665109 361.54296875 426.796875 C362.2578125 424.52734375 362.2578125 424.52734375 363.10546875 422.421875 C364.71225982 418.48877955 364.71225982 418.48877955 363.54296875 414.796875 C362.19139384 412.58301378 362.19139384 412.58301378 360.48828125 410.35546875 C359.87339844 409.52466797 359.25851562 408.69386719 358.625 407.83789062 C357.97917969 406.97873047 357.33335937 406.11957031 356.66796875 405.234375 C356.02988281 404.37134766 355.39179687 403.50832031 354.734375 402.61914062 C350.91683188 397.46811483 350.91683188 397.46811483 346.54296875 392.796875 C345.55941406 393.29316406 344.57585937 393.78945313 343.5625 394.30078125 C317.18234954 407.32941125 289.37348586 414.03425292 259.98046875 413.984375 C258.91258118 413.98297012 258.91258118 413.98297012 257.82312012 413.98153687 C214.49763117 413.85794805 170.22601639 398.87205374 137.54296875 369.796875 C136.70765625 369.06984375 135.87234375 368.3428125 135.01171875 367.59375 C132.48609886 365.36434479 130.00793769 363.09306422 127.54296875 360.796875 C126.7540625 360.07371094 125.96515625 359.35054687 125.15234375 358.60546875 C94.16175933 329.06444392 73.0437415 282.35700608 71.42016602 239.55981445 C71.33579206 235.76298623 71.30229927 231.96962889 71.29296875 228.171875 C71.29063232 227.49744354 71.2882959 226.82301208 71.28588867 226.12814331 C71.26948828 213.51195632 72.47095642 201.24128239 74.54296875 188.796875 C73.89457031 188.84328125 73.24617187 188.8896875 72.578125 188.9375 C38.79768561 190.1804071 6.59440415 177.35855205 -18.58203125 155.421875 C-47.2651706 128.75158753 -61.8527994 88.78080632 -63.58197021 49.99441528 C-63.75956193 43.67628835 -63.78542577 37.35960574 -63.77270508 31.03930664 C-63.76950671 27.7088253 -63.79322723 24.37920276 -63.81835938 21.04882812 C-63.82062939 18.91145944 -63.82133725 16.7740884 -63.8203125 14.63671875 C-63.82952225 13.65122543 -63.83873199 12.66573212 -63.84822083 11.65037537 C-63.80992248 5.9392782 -63.28710276 1.80750021 -60.45703125 -3.203125 C-47.51777591 -11.82929522 -14.69020222 -2.88620091 0 0 Z " fill="#246449" transform="translate(281.45703125,218.203125)"/>
<path d="M0 0 C0.71091797 0.16628906 1.42183594 0.33257812 2.15429688 0.50390625 C38.84916391 9.15684433 70.27227839 32.21939953 90.32373047 64.10498047 C102.36459788 83.79252883 111.00573573 107.133706 111.23828125 130.4140625 C111.2480751 131.21748581 111.25786896 132.02090912 111.26795959 132.84867859 C111.58588953 165.67064156 111.58588953 165.67064156 107 181 C106.80696289 181.71671875 106.61392578 182.4334375 106.41503906 183.171875 C101.32604722 202.02370687 91.87550002 220.30820687 79 235 C78.56333008 235.5053125 78.12666016 236.010625 77.67675781 236.53125 C57.98890004 259.20984787 33.75817385 274.51138041 5 283 C4.25572754 283.2259082 3.51145508 283.45181641 2.74462891 283.68457031 C-9.08535979 287.11271304 -20.96303015 287.38491657 -33.1875 287.4375 C-33.94232666 287.44385468 -34.69715332 287.45020935 -35.47485352 287.45675659 C-50.27354648 287.53417665 -64.52280682 285.70920869 -78.5625 280.8125 C-79.43890137 280.51279297 -80.31530273 280.21308594 -81.21826172 279.90429688 C-93.61716297 275.52847944 -105.21883283 269.53269322 -116 262 C-116.97839844 261.319375 -117.95679688 260.63875 -118.96484375 259.9375 C-151.94345511 235.80482024 -171.93027809 201.07002676 -178.1875 160.9375 C-182.60062293 124.43573742 -173.69983648 84.31684636 -150.9375 54.9375 C-126.2707275 24.50999223 -93.89404694 2.91920626 -54.421875 -2.34375 C-36.4452015 -4.18616163 -17.59747901 -4.42112727 0 0 Z " fill="#FBF9EE" transform="translate(574,302)"/>
<path d="M0 0 C5.22381055 1.10974435 10.39241025 2.38732867 15.54296875 3.796875 C16.26677734 3.99394043 16.99058594 4.19100586 17.73632812 4.39404297 C51.27665392 13.74453769 82.25763475 31.62737189 99.78515625 62.6640625 C104.7781082 71.94824798 108.26421479 81.51193285 110.54296875 91.796875 C110.71683105 92.56918457 110.89069336 93.34149414 111.06982422 94.13720703 C113.80398561 107.15181525 113.80398561 107.15181525 111.26171875 112.484375 C109.35546875 114.734375 109.35546875 114.734375 107.11328125 116.9609375 C103.62422693 120.81056278 101.26486233 125.09364677 98.73046875 129.609375 C98.26294189 130.43493896 97.79541504 131.26050293 97.3137207 132.11108398 C96.43763537 133.66071624 95.56386678 135.21166149 94.69287109 136.76416016 C93.35193498 139.1345708 91.96210735 141.47250513 90.54296875 143.796875 C87.48474789 140.07154223 84.64815741 136.2140554 81.82299805 132.31225586 C75.52503503 123.6336611 69.0003571 115.29678441 61.86865234 107.29003906 C60.63914585 105.90520265 59.4281166 104.50402125 58.21875 103.1015625 C45.07233934 88.04337578 29.06239776 75.43696282 11.54296875 65.796875 C12.18363281 66.4259375 12.82429688 67.055 13.484375 67.703125 C18.06130045 72.23230309 22.52135614 76.78657434 26.70703125 81.6796875 C28.89503045 84.20286955 31.15589988 86.65242019 33.41796875 89.109375 C47.39616146 104.47696638 59.60343975 121.15922105 70.54296875 138.796875 C71.23648438 139.91449219 71.93 141.03210938 72.64453125 142.18359375 C83.01467928 159.41569079 83.01467928 159.41569079 80.54296875 169.796875 C79.56850512 173.62976529 78.55547503 177.44009724 77.48046875 181.24609375 C76.64055084 184.42728283 76.02257659 187.54453433 75.54296875 190.796875 C75.21296875 190.136875 74.88296875 189.476875 74.54296875 188.796875 C73.89457031 188.84328125 73.24617187 188.8896875 72.578125 188.9375 C38.79768561 190.1804071 6.59440415 177.35855205 -18.58203125 155.421875 C-47.2651706 128.75158753 -61.8527994 88.78080632 -63.58197021 49.99441528 C-63.75956193 43.67628835 -63.78542577 37.35960574 -63.77270508 31.03930664 C-63.76950671 27.7088253 -63.79322723 24.37920276 -63.81835938 21.04882812 C-63.82062939 18.91145944 -63.82133725 16.7740884 -63.8203125 14.63671875 C-63.82952225 13.65122543 -63.83873199 12.66573212 -63.84822083 11.65037537 C-63.80992248 5.9392782 -63.28710276 1.80750021 -60.45703125 -3.203125 C-47.51777591 -11.82929522 -14.69020222 -2.88620091 0 0 Z " fill="#77B17B" transform="translate(281.45703125,218.203125)"/>
<path d="M0 0 C4.45090744 4.01667257 8.33893251 8.07299803 8.66796875 14.3125 C8.20196931 24.25382141 1.34707846 30.75470775 -5.0859375 37.71484375 C-7.44808096 40.32418827 -9.66794726 43.00873131 -11.875 45.75 C-15.73575137 50.523903 -19.81187075 55.04638428 -23.96875 59.5625 C-26.38128104 62.24987634 -28.6700621 65.00215444 -30.9375 67.8125 C-33.99098679 71.59710334 -37.14418301 75.23457537 -40.4375 78.8125 C-44.55128909 83.2823512 -48.40837297 87.90294893 -52.22265625 92.62890625 C-54.39382827 95.25958557 -56.63991357 97.79192424 -58.9375 100.3125 C-62.05208668 103.72989372 -65.0293662 107.2177235 -67.9375 110.8125 C-71.54555818 115.27246081 -75.31383822 119.5363552 -79.18359375 123.76953125 C-81.55339197 126.44325506 -83.77621642 129.20405941 -86 132 C-95.88520576 144.18368891 -95.88520576 144.18368891 -102.4375 145.3125 C-108.49769421 145.89521098 -112.51616771 144.71817151 -117.4375 141.3125 C-122.54009633 136.82679788 -127.01452838 131.74859456 -131.43359375 126.6015625 C-134.00620072 123.66287305 -136.65695807 120.80116558 -139.3125 117.9375 C-144.40548071 112.44102888 -149.4393216 106.89547441 -154.4375 101.3125 C-155.89508719 99.68683069 -157.35343328 98.06184153 -158.8125 96.4375 C-159.90884766 95.21353516 -159.90884766 95.21353516 -161.02734375 93.96484375 C-162.79391787 92.02075327 -164.57458362 90.09976821 -166.37890625 88.19140625 C-166.87664551 87.6607959 -167.37438477 87.13018555 -167.88720703 86.58349609 C-168.85494317 85.55350978 -169.82830926 84.5287746 -170.80810547 83.51025391 C-175.7359086 78.24593534 -176.91121504 73.85993362 -176.75390625 66.8125 C-176.10073855 61.6516688 -173.6615488 58.41997273 -169.8125 54.9375 C-164.64178691 51.39964367 -159.56729033 51.74865595 -153.4375 52.3125 C-146.85457385 55.41765385 -141.88230889 61.59456029 -137.1875 67.0625 C-134.25470452 70.47088393 -131.13678646 73.65650565 -127.9375 76.8125 C-124.73821354 79.96849435 -121.62029548 83.15411607 -118.6875 86.5625 C-118.14609375 87.18511719 -117.6046875 87.80773437 -117.046875 88.44921875 C-115.92003537 89.75383648 -114.80648771 91.06999899 -113.703125 92.39453125 C-113.12046875 93.04808594 -112.5378125 93.70164062 -111.9375 94.375 C-111.4321875 94.96410156 -110.926875 95.55320312 -110.40625 96.16015625 C-108.3215635 97.60418778 -108.3215635 97.60418778 -104.98828125 97.30078125 C-100.75467204 96.12244997 -99.68255063 94.94357911 -97.125 91.4375 C-94.04154832 87.3855618 -90.90482221 83.54323118 -87.4375 79.8125 C-83.32371091 75.3426488 -79.46662703 70.72205107 -75.65234375 65.99609375 C-72.77269113 62.50699084 -69.73056124 59.18253079 -66.68359375 55.83984375 C-64.37562402 53.24287607 -62.18194137 50.57845987 -60 47.875 C-56.14041397 43.10253797 -52.06550009 38.58140891 -47.91015625 34.06640625 C-44.69403418 30.48446935 -41.68489074 26.75449346 -38.6640625 23.0078125 C-35.72555959 19.45067739 -32.61436325 16.0672608 -29.49609375 12.66796875 C-27.60357592 10.50252615 -25.95495438 8.29444382 -24.3125 5.9375 C-18.33663295 -2.10631014 -9.22909889 -4.53064855 0 0 Z " fill="#264D3F" transform="translate(623.4375,366.6875)"/>
<path d="M0 0 C12.21387625 5.7336534 26.96456109 15.15792454 35 26 C30.2362896 23.93759361 26.65929825 20.43967694 22.75390625 17.09375 C20.18915115 15.14380854 18.03584823 14.01378598 15 13 C15 12.34 15 11.68 15 11 C14.34 11 13.68 11 13 11 C13.48210937 11.53109375 13.96421875 12.0621875 14.4609375 12.609375 C15.09257812 13.31578125 15.72421875 14.0221875 16.375 14.75 C17.00148438 15.44609375 17.62796875 16.1421875 18.2734375 16.859375 C19.88286414 18.85477274 20.90140836 20.70179679 22 23 C16.82483592 18.71618808 12.17477173 14.18781197 7.625 9.25 C6.99722656 8.57839844 6.36945313 7.90679687 5.72265625 7.21484375 C1.13552035 2.27104069 1.13552035 2.27104069 0 0 Z " fill="#124C3A" transform="translate(292,283)"/>
<path d="M0 0 C3.42946293 1.61674681 6.56263052 3.57597677 9.75 5.625 C11.22726562 6.57246094 11.22726562 6.57246094 12.734375 7.5390625 C13.48203125 8.02117187 14.2296875 8.50328125 15 9 C14.01 9.495 14.01 9.495 13 10 C12.34 9.67 11.68 9.34 11 9 C10.67 9.66 10.34 10.32 10 11 C8.33035479 9.35718838 6.6643536 7.71067239 5 6.0625 C4.071875 5.14597656 3.14375 4.22945313 2.1875 3.28515625 C0 1 0 1 0 0 Z " fill="#0C4032" transform="translate(292,283)"/>
<path d="M0 0 C3.12857014 1.3881735 5.28189174 3.01101878 7.6875 5.4375 C8.28949219 6.03433594 8.89148438 6.63117188 9.51171875 7.24609375 C11 9 11 9 12 12 C8.78450781 10.62193192 7.02779999 9.11390261 4.875 6.375 C3.43831282 4.49549039 3.43831282 4.49549039 2 3 C1.34 3 0.68 3 0 3 C0 2.01 0 1.02 0 0 Z " fill="#7EB881" transform="translate(292,285)"/>
<path d="M0 0 C-2.90600261 1.25664978 -4.79604584 2 -8 2 C-8 2.66 -8 3.32 -8 4 C-10.31 4 -12.62 4 -15 4 C-12.83900627 1.83900627 -11.4789582 1.28436284 -8.625 0.3125 C-7.46871094 -0.09548828 -7.46871094 -0.09548828 -6.2890625 -0.51171875 C-3.79944692 -1.04278009 -2.38446982 -0.81115526 0 0 Z " fill="#1C5438" transform="translate(592,582)"/>
<path d="M0 0 C3.34998521 1.11666174 3.79340222 1.74694925 5.6875 4.5625 C6.12449219 5.20316406 6.56148438 5.84382813 7.01171875 6.50390625 C7.33785156 6.99761719 7.66398437 7.49132812 8 8 C4.63820226 6.55922954 2.40843732 4.75249979 0 2 C0 1.34 0 0.68 0 0 Z " fill="#F2F3F0" transform="translate(455,453)"/>
<path d="M0 0 C1.98 0.99 1.98 0.99 4 2 C4 2.66 4 3.32 4 4 C4.99 4.33 5.98 4.66 7 5 C6.34 5.66 5.68 6.32 5 7 C3.29115995 5.37660195 1.62553283 3.70680947 0 2 C0 1.34 0 0.68 0 0 Z " fill="#DFE4DD" transform="translate(668,304)"/>
</svg>
